# Blender v2.79 (sub 0) OBJ File: ''
# www.blender.org
mtllib frying_pan.mtl
o 柱体.001
v 0.500000 0.100000 0.000000
v 0.590229 -0.000000 0.046387
v 0.500000 -0.000000 0.037500
v 0.597545 0.100000 0.009607
v 0.676991 -0.000000 0.072706
v 0.691342 0.100000 0.038060
v 0.756951 -0.000000 0.115445
v 0.853553 0.100000 0.146447
v 0.827037 -0.000000 0.172963
v 0.884555 -0.000000 0.243049
v 0.961940 0.100000 0.308658
v 0.927294 -0.000000 0.323009
v 0.990393 0.100000 0.402455
v 0.953613 -0.000000 0.409771
v 1.000000 0.100000 0.500000
v 0.962500 -0.000000 0.500000
v 0.953613 -0.000000 0.590229
v 0.990393 0.100000 0.597545
v 0.927294 -0.000000 0.676991
v 0.961940 0.100000 0.691342
v 0.884555 -0.000000 0.756951
v 0.853553 0.100000 0.853553
v 0.827037 -0.000000 0.827037
v 0.756951 -0.000000 0.884555
v 0.691342 0.100000 0.961940
v 0.676991 -0.000000 0.927294
v 0.597545 0.100000 0.990393
v 0.590229 -0.000000 0.953613
v 0.500000 0.100000 1.000000
v 0.500000 -0.000000 0.962500
v 0.409771 -0.000000 0.953613
v 0.402455 0.100000 0.990393
v 0.323009 -0.000000 0.927294
v 0.308658 0.100000 0.961940
v 0.243049 -0.000000 0.884555
v 0.222215 0.100000 0.915735
v 0.172963 -0.000000 0.827037
v 0.146446 0.100000 0.853553
v 0.115445 -0.000000 0.756951
v 0.084265 0.100000 0.777785
v 0.072706 -0.000000 0.676991
v 0.038060 0.100000 0.691341
v 0.046387 -0.000000 0.590229
v 0.000000 0.100000 0.500000
v 0.037500 -0.000000 0.500000
v 0.046387 -0.000000 0.409770
v 0.038060 0.100000 0.308658
v 0.072706 -0.000000 0.323008
v 0.084266 0.100000 0.222214
v 0.115446 -0.000000 0.243048
v 0.172964 -0.000000 0.172963
v 0.222215 0.100000 0.084265
v 0.243049 -0.000000 0.115445
v 0.308659 0.100000 0.038060
v 0.323010 -0.000000 0.072705
v 0.409771 -0.000000 0.046387
v 0.402456 0.100000 0.009607
v 0.777785 0.100000 0.084265
v 0.915735 0.100000 0.222215
v 0.915735 0.100000 0.777785
v 0.777785 0.100000 0.915735
v 0.009607 0.100000 0.597545
v 0.009607 0.100000 0.402454
v 0.146447 0.100000 0.146446
vt 1.000000 0.000000
vt 0.000000 1.000000
vt 0.000000 0.000000
vt 1.000000 0.000000
vt 0.000000 1.000000
vt 0.000000 0.000000
vt 1.000000 0.000000
vt 0.000000 1.000000
vt 0.000000 0.000000
vt 0.000000 0.000000
vt 1.000000 1.000000
vt 0.000000 1.000000
vt 1.000000 0.000000
vt 0.000000 1.000000
vt 0.000000 0.000000
vt 0.000000 0.000000
vt 1.000000 1.000000
vt 0.000000 1.000000
vt 0.000000 0.000000
vt 1.000000 1.000000
vt 0.000000 1.000000
vt 0.000000 0.000000
vt 1.000000 1.000000
vt 0.000000 1.000000
vt 1.000000 0.000000
vt 0.000000 1.000000
vt 0.000000 0.000000
vt 1.000000 0.000000
vt 0.000000 1.000000
vt 0.000000 0.000000
vt 1.000000 0.000000
vt 0.000000 1.000000
vt 0.000000 0.000000
vt 0.000000 0.000000
vt 1.000000 1.000000
vt 0.000000 1.000000
vt 1.000000 0.000000
vt 0.000000 1.000000
vt 0.000000 0.000000
vt 0.000000 0.000000
vt 1.000000 1.000000
vt 0.000000 1.000000
vt 0.000000 0.000000
vt 1.000000 1.000000
vt 0.000000 1.000000
vt 0.000000 0.000000
vt 1.000000 1.000000
vt 0.000000 1.000000
vt 1.000000 0.000000
vt 0.000000 1.000000
vt 0.000000 0.000000
vt 1.000000 0.000000
vt 0.000000 1.000000
vt 0.000000 0.000000
vt 1.000000 0.000000
vt 0.000000 1.000000
vt 0.000000 0.000000
vt 1.000000 0.000000
vt 0.000000 1.000000
vt 0.000000 0.000000
vt 1.000000 0.000000
vt 0.000000 1.000000
vt 0.000000 0.000000
vt 1.000000 0.000000
vt 0.000000 1.000000
vt 0.000000 0.000000
vt 1.000000 0.000000
vt 0.000000 1.000000
vt 0.000000 0.000000
vt 0.000000 0.000000
vt 1.000000 1.000000
vt 0.000000 1.000000
vt 1.000000 0.000000
vt 0.000000 1.000000
vt 0.000000 0.000000
vt 0.000000 0.000000
vt 1.000000 1.000000
vt 0.000000 1.000000
vt 0.000000 0.000000
vt 1.000000 1.000000
vt 0.000000 1.000000
vt 1.000000 0.000000
vt 0.000000 1.000000
vt 0.000000 0.000000
vt 0.000000 0.000000
vt 1.000000 1.000000
vt 0.000000 1.000000
vt 0.000000 0.000000
vt 1.000000 1.000000
vt 0.000000 1.000000
vt 1.000000 0.000000
vt 0.000000 1.000000
vt 0.000000 0.000000
vt 1.000000 0.000000
vt 0.000000 1.000000
vt 0.000000 0.000000
vt 0.597545 0.009607
vt 0.009607 0.402455
vt 0.402456 0.990393
vt 1.000000 1.000000
vt 1.000000 1.000000
vt 1.000000 1.000000
vt 1.000000 0.000000
vt 1.000000 1.000000
vt 1.000000 0.000000
vt 1.000000 0.000000
vt 1.000000 0.000000
vt 1.000000 1.000000
vt 1.000000 1.000000
vt 1.000000 1.000000
vt 1.000000 0.000000
vt 1.000000 1.000000
vt 1.000000 0.000000
vt 1.000000 0.000000
vt 1.000000 0.000000
vt 1.000000 1.000000
vt 1.000000 1.000000
vt 1.000000 1.000000
vt 1.000000 1.000000
vt 1.000000 1.000000
vt 1.000000 1.000000
vt 1.000000 1.000000
vt 1.000000 0.000000
vt 1.000000 1.000000
vt 1.000000 0.000000
vt 1.000000 0.000000
vt 1.000000 1.000000
vt 1.000000 0.000000
vt 1.000000 0.000000
vt 1.000000 1.000000
vt 1.000000 1.000000
vt 0.500000 1.000000
vt 0.597545 0.990393
vt 0.691342 0.961940
vt 0.777785 0.915735
vt 0.853553 0.853553
vt 0.915735 0.777785
vt 0.961940 0.691342
vt 0.990393 0.597545
vt 1.000000 0.500000
vt 0.990393 0.402455
vt 0.961940 0.308658
vt 0.915735 0.222215
vt 0.853553 0.146447
vt 0.777785 0.084265
vt 0.691342 0.038060
vt 0.500000 0.000000
vt 0.402455 0.009607
vt 0.308658 0.038060
vt 0.222215 0.084265
vt 0.146446 0.146447
vt 0.084265 0.222215
vt 0.038060 0.308659
vt 0.000000 0.500000
vt 0.009607 0.597546
vt 0.038060 0.691342
vt 0.084266 0.777786
vt 0.146447 0.853554
vt 0.222215 0.915735
vt 0.308659 0.961940
vn 0.0918 -0.3496 -0.9324
vn 0.2720 -0.3496 -0.8965
vn 0.4416 -0.3496 -0.8263
vn 0.5944 -0.3496 -0.7242
vn 0.7242 -0.3496 -0.5944
vn 0.8263 -0.3496 -0.4416
vn 0.8965 -0.3496 -0.2720
vn 0.9324 -0.3496 -0.0918
vn 0.9324 -0.3496 0.0918
vn 0.8965 -0.3496 0.2720
vn 0.8263 -0.3496 0.4416
vn 0.7242 -0.3496 0.5944
vn 0.5944 -0.3496 0.7242
vn 0.4416 -0.3496 0.8263
vn 0.2720 -0.3496 0.8965
vn 0.0918 -0.3496 0.9324
vn -0.0918 -0.3496 0.9324
vn -0.2720 -0.3496 0.8965
vn -0.4416 -0.3496 0.8263
vn -0.5944 -0.3496 0.7242
vn -0.7242 -0.3496 0.5944
vn -0.8263 -0.3496 0.4416
vn -0.8965 -0.3496 0.2720
vn -0.9324 -0.3496 0.0918
vn -0.9324 -0.3496 -0.0918
vn -0.8965 -0.3496 -0.2720
vn -0.8263 -0.3496 -0.4416
vn -0.7242 -0.3496 -0.5944
vn -0.5944 -0.3496 -0.7242
vn -0.4416 -0.3496 -0.8263
vn -0.2720 -0.3496 -0.8965
vn -0.0918 -0.3496 -0.9324
vn 0.0000 -1.0000 -0.0000
usemtl iron
s off
f 1/1/1 2/2/1 3/3/1
f 4/4/2 5/5/2 2/6/2
f 6/7/3 7/8/3 5/9/3
f 7/10/4 8/11/4 9/12/4
f 8/13/5 10/14/5 9/15/5
f 10/16/6 11/17/6 12/18/6
f 12/19/7 13/20/7 14/21/7
f 14/22/8 15/23/8 16/24/8
f 15/25/9 17/26/9 16/27/9
f 18/28/10 19/29/10 17/30/10
f 20/31/11 21/32/11 19/33/11
f 21/34/12 22/35/12 23/36/12
f 22/37/13 24/38/13 23/39/13
f 24/40/14 25/41/14 26/42/14
f 26/43/15 27/44/15 28/45/15
f 28/46/16 29/47/16 30/48/16
f 29/49/17 31/50/17 30/51/17
f 32/52/18 33/53/18 31/54/18
f 34/55/19 35/56/19 33/57/19
f 36/58/20 37/59/20 35/60/20
f 38/61/21 39/62/21 37/63/21
f 40/64/22 41/65/22 39/66/22
f 42/67/23 43/68/23 41/69/23
f 43/70/24 44/71/24 45/72/24
f 44/73/25 46/74/25 45/75/25
f 46/76/26 47/77/26 48/78/26
f 48/79/27 49/80/27 50/81/27
f 49/82/28 51/83/28 50/84/28
f 51/85/29 52/86/29 53/87/29
f 53/88/30 54/89/30 55/90/30
f 54/91/31 56/92/31 55/93/31
f 57/94/32 3/95/32 56/96/32
f 28/97/33 43/98/33 56/99/33
f 1/1/1 4/100/1 2/2/1
f 4/4/2 6/101/2 5/5/2
f 6/7/3 58/102/3 7/8/3
f 7/10/4 58/103/4 8/11/4
f 8/13/5 59/104/5 10/14/5
f 10/16/6 59/105/6 11/17/6
f 12/19/7 11/106/7 13/20/7
f 14/22/8 13/107/8 15/23/8
f 15/25/9 18/108/9 17/26/9
f 18/28/10 20/109/10 19/29/10
f 20/31/11 60/110/11 21/32/11
f 21/34/12 60/111/12 22/35/12
f 22/37/13 61/112/13 24/38/13
f 24/40/14 61/113/14 25/41/14
f 26/43/15 25/114/15 27/44/15
f 28/46/16 27/115/16 29/47/16
f 29/49/17 32/116/17 31/50/17
f 32/52/18 34/117/18 33/53/18
f 34/55/19 36/118/19 35/56/19
f 36/58/20 38/119/20 37/59/20
f 38/61/21 40/120/21 39/62/21
f 40/64/22 42/121/22 41/65/22
f 42/67/23 62/122/23 43/68/23
f 43/70/24 62/123/24 44/71/24
f 44/73/25 63/124/25 46/74/25
f 46/76/26 63/125/26 47/77/26
f 48/79/27 47/126/27 49/80/27
f 49/82/28 64/127/28 51/83/28
f 51/85/29 64/128/29 52/86/29
f 53/88/30 52/129/30 54/89/30
f 54/91/31 57/130/31 56/92/31
f 57/94/32 1/131/32 3/95/32
f 56/99/33 3/132/33 2/133/33
f 2/133/33 5/134/33 7/135/33
f 7/135/33 9/136/33 10/137/33
f 10/137/33 12/138/33 7/135/33
f 12/138/33 14/139/33 7/135/33
f 14/139/33 16/140/33 17/141/33
f 17/141/33 19/142/33 21/143/33
f 21/143/33 23/144/33 24/145/33
f 24/145/33 26/146/33 21/143/33
f 26/146/33 28/97/33 21/143/33
f 28/97/33 30/147/33 31/148/33
f 31/148/33 33/149/33 35/150/33
f 35/150/33 37/151/33 39/152/33
f 39/152/33 41/153/33 35/150/33
f 41/153/33 43/98/33 35/150/33
f 43/98/33 45/154/33 46/155/33
f 46/155/33 48/156/33 50/157/33
f 50/157/33 51/158/33 56/99/33
f 51/158/33 53/159/33 56/99/33
f 53/159/33 55/160/33 56/99/33
f 56/99/33 2/133/33 14/139/33
f 2/133/33 7/135/33 14/139/33
f 14/139/33 17/141/33 28/97/33
f 17/141/33 21/143/33 28/97/33
f 28/97/33 31/148/33 43/98/33
f 31/148/33 35/150/33 43/98/33
f 43/98/33 46/155/33 50/157/33
f 43/98/33 50/157/33 56/99/33
f 56/99/33 14/139/33 28/97/33
o Box063.002
v -0.222800 0.117047 0.441100
v 0.010300 0.048935 0.534100
v -0.222800 0.117047 0.534100
v 0.020900 0.072308 0.534100
v -0.212200 0.140420 0.441100
v -0.212200 0.140420 0.534100
v 0.010300 0.048935 0.441100
v 0.020900 0.072308 0.441100
vt 0.249300 0.208900
vt 0.006100 0.117800
vt 0.249300 0.117800
vt 0.006100 0.102500
vt 0.249300 0.011300
vt 0.249300 0.102500
vt 0.006100 0.254600
vt 0.249300 0.224200
vt 0.249300 0.254600
vt 0.112500 0.345900
vt 0.203700 0.315500
vt 0.203700 0.345900
vt 0.249300 0.300300
vt 0.006100 0.269900
vt 0.249300 0.269900
vt 0.006100 0.345900
vt 0.097300 0.315500
vt 0.097300 0.345900
vt 0.006100 0.208900
vt 0.006100 0.011300
vt 0.006100 0.224200
vt 0.112500 0.315500
vt 0.006100 0.300300
vt 0.006100 0.315500
vn -0.2805 -0.9599 -0.0000
vn 0.2805 0.9599 0.0000
vn -0.0000 0.0000 1.0000
vn 0.9107 -0.4130 -0.0000
vn 0.0000 0.0000 -1.0000
vn -0.9107 0.4130 0.0000
usemtl planks
s 1
f 65/161/34 66/162/34 67/163/34
f 68/164/35 69/165/35 70/166/35
f 66/167/36 70/168/36 67/169/36
f 71/170/37 68/171/37 66/172/37
f 71/173/38 69/174/38 72/175/38
f 67/176/39 69/177/39 65/178/39
f 65/161/34 71/179/34 66/162/34
f 68/164/35 72/180/35 69/165/35
f 66/167/36 68/181/36 70/168/36
f 71/170/37 72/182/37 68/171/37
f 71/173/38 65/183/38 69/174/38
f 67/176/39 70/184/39 69/177/39
o Box062.002
v -0.574700 0.058452 0.487600
v -0.512700 0.058452 0.549600
v -0.574700 0.058452 0.549600
v -0.512700 0.058452 0.487600
v -0.450700 0.058452 0.549600
v -0.450700 0.058452 0.487600
v -0.388700 0.058452 0.549600
v -0.388700 0.058452 0.487600
v -0.326700 0.058452 0.549600
v -0.326700 0.058452 0.487600
v -0.264700 0.058452 0.549600
v -0.264700 0.058452 0.487600
v -0.202700 0.058452 0.549600
v -0.202700 0.058452 0.487600
v -0.140700 0.058452 0.549600
v -0.574700 0.058452 0.425600
v -0.512700 0.058452 0.425600
v -0.450700 0.058452 0.425600
v -0.388700 0.058452 0.425600
v -0.326700 0.058452 0.425600
v -0.264700 0.058452 0.425600
v -0.202700 0.058452 0.425600
v -0.140700 0.058452 0.487600
v -0.512700 0.159170 0.549600
v -0.574700 0.159170 0.487600
v -0.574700 0.159170 0.549600
v -0.450700 0.159170 0.549600
v -0.512700 0.159170 0.487600
v -0.388700 0.159170 0.549600
v -0.450700 0.159170 0.487600
v -0.326700 0.159170 0.549600
v -0.388700 0.159170 0.487600
v -0.264700 0.159170 0.549600
v -0.326700 0.159170 0.487600
v -0.202700 0.159170 0.549600
v -0.264700 0.159170 0.487600
v -0.140700 0.159170 0.549600
v -0.202700 0.159170 0.487600
v -0.574700 0.159170 0.425600
v -0.512700 0.159170 0.425600
v -0.450700 0.159170 0.425600
v -0.388700 0.159170 0.425600
v -0.326700 0.159170 0.425600
v -0.264700 0.159170 0.425600
v -0.140700 0.159170 0.487600
v -0.202700 0.159170 0.425600
v -0.574700 0.108811 0.549600
v -0.512700 0.108811 0.549600
v -0.450700 0.108811 0.549600
v -0.388700 0.108811 0.549600
v -0.326700 0.108811 0.549600
v -0.264700 0.108811 0.549600
v -0.202700 0.108811 0.549600
v -0.140700 0.108811 0.549600
v -0.140700 0.058452 0.425600
v -0.140700 0.108811 0.487600
v -0.140700 0.108811 0.425600
v -0.202700 0.108811 0.425600
v -0.264700 0.108811 0.425600
v -0.326700 0.108811 0.425600
v -0.388700 0.108811 0.425600
v -0.450700 0.108811 0.425600
v -0.512700 0.108811 0.425600
v -0.140700 0.159170 0.425600
v -0.574700 0.108811 0.425600
v -0.574700 0.108811 0.487600
vt 0.740200 0.152900
vt 0.636400 0.049200
vt 0.740200 0.049200
vt 0.636400 0.152900
vt 0.532700 0.049200
vt 0.532700 0.152900
vt 0.429000 0.049200
vt 0.429000 0.152900
vt 0.325300 0.049200
vt 0.325300 0.152900
vt 0.221500 0.049200
vt 0.221500 0.152900
vt 0.117800 0.049200
vt 0.117800 0.152900
vt 0.014100 0.049200
vt 0.740200 0.256600
vt 0.636400 0.256600
vt 0.532700 0.256600
vt 0.429000 0.256600
vt 0.325300 0.256600
vt 0.221500 0.256600
vt 0.117800 0.256600
vt 0.014100 0.152900
vt 0.636400 0.261400
vt 0.740200 0.157700
vt 0.740200 0.261400
vt 0.532700 0.261400
vt 0.636400 0.157700
vt 0.429000 0.261400
vt 0.532700 0.157700
vt 0.325300 0.261400
vt 0.429000 0.157700
vt 0.221500 0.261400
vt 0.325300 0.157700
vt 0.117800 0.261400
vt 0.221500 0.157700
vt 0.014100 0.261400
vt 0.117800 0.157700
vt 0.740200 0.054000
vt 0.636400 0.054000
vt 0.532700 0.054000
vt 0.429000 0.054000
vt 0.325300 0.054000
vt 0.221500 0.054000
vt 0.014100 0.157700
vt 0.117800 0.054000
vt 0.636400 0.254800
vt 0.740200 0.151100
vt 0.740200 0.254800
vt 0.532700 0.254800
vt 0.636400 0.151100
vt 0.429000 0.254800
vt 0.532700 0.151100
vt 0.325300 0.254800
vt 0.429000 0.151100
vt 0.221500 0.254800
vt 0.325300 0.151100
vt 0.117800 0.254800
vt 0.221500 0.151100
vt 0.014100 0.254800
vt 0.117800 0.151100
vt 0.740200 0.047300
vt 0.636400 0.047300
vt 0.532700 0.047300
vt 0.429000 0.047300
vt 0.325300 0.047300
vt 0.221500 0.047300
vt 0.014100 0.151100
vt 0.117800 0.047300
vt 0.893700 0.050100
vt 0.789900 0.153800
vt 0.789900 0.050100
vt 0.997400 0.050100
vt 0.893700 0.153800
vt 0.789900 0.257500
vt 0.997400 0.153800
vt 0.893700 0.257500
vt 0.636400 0.258600
vt 0.740200 0.154900
vt 0.740200 0.258600
vt 0.532700 0.258600
vt 0.636400 0.154900
vt 0.429000 0.258600
vt 0.532700 0.154900
vt 0.325300 0.258600
vt 0.429000 0.154900
vt 0.221500 0.258600
vt 0.325300 0.154900
vt 0.117800 0.258600
vt 0.221500 0.154900
vt 0.014100 0.258600
vt 0.117800 0.154900
vt 0.740200 0.051200
vt 0.636400 0.051200
vt 0.532700 0.051200
vt 0.429000 0.051200
vt 0.325300 0.051200
vt 0.221500 0.051200
vt 0.014100 0.154900
vt 0.117800 0.051200
vt 0.893700 0.054000
vt 0.789900 0.157700
vt 0.789900 0.054000
vt 0.997400 0.054000
vt 0.893700 0.157700
vt 0.789900 0.261400
vt 0.997400 0.157700
vt 0.893700 0.261400
vt 0.014100 0.256600
vt 0.014100 0.054000
vt 0.014100 0.047300
vt 0.997400 0.257500
vt 0.014100 0.051200
vt 0.997400 0.261400
vn 0.0000 -1.0000 -0.0000
vn 0.0000 1.0000 0.0000
vn 0.0000 0.0000 1.0000
vn 1.0000 0.0000 0.0000
vn 0.0000 0.0000 -1.0000
vn -1.0000 0.0000 0.0000
usemtl cobblestone_planks_oak
s 1
f 73/185/40 74/186/40 75/187/40
f 76/188/40 77/189/40 74/186/40
f 78/190/40 79/191/40 77/189/40
f 80/192/40 81/193/40 79/191/40
f 82/194/40 83/195/40 81/193/40
f 84/196/40 85/197/40 83/195/40
f 86/198/40 87/199/40 85/197/40
f 88/200/40 76/188/40 73/185/40
f 89/201/40 78/190/40 76/188/40
f 90/202/40 80/192/40 78/190/40
f 91/203/40 82/194/40 80/192/40
f 92/204/40 84/196/40 82/194/40
f 93/205/40 86/198/40 84/196/40
f 94/206/40 95/207/40 86/198/40
f 96/208/41 97/209/41 98/210/41
f 99/211/41 100/212/41 96/208/41
f 101/213/41 102/214/41 99/211/41
f 103/215/41 104/216/41 101/213/41
f 105/217/41 106/218/41 103/215/41
f 107/219/41 108/220/41 105/217/41
f 109/221/41 110/222/41 107/219/41
f 100/212/41 111/223/41 97/209/41
f 102/214/41 112/224/41 100/212/41
f 104/216/41 113/225/41 102/214/41
f 106/218/41 114/226/41 104/216/41
f 108/220/41 115/227/41 106/218/41
f 110/222/41 116/228/41 108/220/41
f 117/229/41 118/230/41 110/222/41
f 74/231/42 119/232/42 75/233/42
f 77/234/42 120/235/42 74/231/42
f 79/236/42 121/237/42 77/234/42
f 81/238/42 122/239/42 79/236/42
f 83/240/42 123/241/42 81/238/42
f 85/242/42 124/243/42 83/240/42
f 87/244/42 125/245/42 85/242/42
f 120/235/42 98/246/42 119/232/42
f 121/237/42 96/247/42 120/235/42
f 122/239/42 99/248/42 121/237/42
f 123/241/42 101/249/42 122/239/42
f 124/243/42 103/250/42 123/241/42
f 125/245/42 105/251/42 124/243/42
f 126/252/42 107/253/42 125/245/42
f 95/254/43 126/255/43 87/256/43
f 127/257/43 128/258/43 95/254/43
f 128/258/43 109/259/43 126/255/43
f 129/260/43 117/261/43 128/258/43
f 94/262/44 129/263/44 127/264/44
f 93/265/44 130/266/44 94/262/44
f 92/267/44 131/268/44 93/265/44
f 91/269/44 132/270/44 92/267/44
f 90/271/44 133/272/44 91/269/44
f 89/273/44 134/274/44 90/271/44
f 88/275/44 135/276/44 89/273/44
f 130/266/44 136/277/44 129/263/44
f 131/268/44 118/278/44 130/266/44
f 132/270/44 116/279/44 131/268/44
f 133/272/44 115/280/44 132/270/44
f 134/274/44 114/281/44 133/272/44
f 135/276/44 113/282/44 134/274/44
f 137/283/44 112/284/44 135/276/44
f 73/285/45 137/286/45 88/287/45
f 75/288/45 138/289/45 73/285/45
f 138/289/45 111/290/45 137/286/45
f 119/291/45 97/292/45 138/289/45
f 73/185/40 76/188/40 74/186/40
f 76/188/40 78/190/40 77/189/40
f 78/190/40 80/192/40 79/191/40
f 80/192/40 82/194/40 81/193/40
f 82/194/40 84/196/40 83/195/40
f 84/196/40 86/198/40 85/197/40
f 86/198/40 95/207/40 87/199/40
f 88/200/40 89/201/40 76/188/40
f 89/201/40 90/202/40 78/190/40
f 90/202/40 91/203/40 80/192/40
f 91/203/40 92/204/40 82/194/40
f 92/204/40 93/205/40 84/196/40
f 93/205/40 94/206/40 86/198/40
f 94/206/40 127/293/40 95/207/40
f 96/208/41 100/212/41 97/209/41
f 99/211/41 102/214/41 100/212/41
f 101/213/41 104/216/41 102/214/41
f 103/215/41 106/218/41 104/216/41
f 105/217/41 108/220/41 106/218/41
f 107/219/41 110/222/41 108/220/41
f 109/221/41 117/229/41 110/222/41
f 100/212/41 112/224/41 111/223/41
f 102/214/41 113/225/41 112/224/41
f 104/216/41 114/226/41 113/225/41
f 106/218/41 115/227/41 114/226/41
f 108/220/41 116/228/41 115/227/41
f 110/222/41 118/230/41 116/228/41
f 117/229/41 136/294/41 118/230/41
f 74/231/42 120/235/42 119/232/42
f 77/234/42 121/237/42 120/235/42
f 79/236/42 122/239/42 121/237/42
f 81/238/42 123/241/42 122/239/42
f 83/240/42 124/243/42 123/241/42
f 85/242/42 125/245/42 124/243/42
f 87/244/42 126/252/42 125/245/42
f 120/235/42 96/247/42 98/246/42
f 121/237/42 99/248/42 96/247/42
f 122/239/42 101/249/42 99/248/42
f 123/241/42 103/250/42 101/249/42
f 124/243/42 105/251/42 103/250/42
f 125/245/42 107/253/42 105/251/42
f 126/252/42 109/295/42 107/253/42
f 95/254/43 128/258/43 126/255/43
f 127/257/43 129/260/43 128/258/43
f 128/258/43 117/261/43 109/259/43
f 129/260/43 136/296/43 117/261/43
f 94/262/44 130/266/44 129/263/44
f 93/265/44 131/268/44 130/266/44
f 92/267/44 132/270/44 131/268/44
f 91/269/44 133/272/44 132/270/44
f 90/271/44 134/274/44 133/272/44
f 89/273/44 135/276/44 134/274/44
f 88/275/44 137/283/44 135/276/44
f 130/266/44 118/278/44 136/277/44
f 131/268/44 116/279/44 118/278/44
f 132/270/44 115/280/44 116/279/44
f 133/272/44 114/281/44 115/280/44
f 134/274/44 113/282/44 114/281/44
f 135/276/44 112/284/44 113/282/44
f 137/283/44 111/297/44 112/284/44
f 73/285/45 138/289/45 137/286/45
f 75/288/45 119/291/45 138/289/45
f 138/289/45 97/292/45 111/290/45
f 119/291/45 98/298/45 97/292/45
